<svg width="143" height="42" viewBox="0 0 143 42" fill="none" xmlns="http://www.w3.org/2000/svg">
<g clip-path="url(#clip0_1757_2422)">
<path d="M16.2314 27.2445L19.9995 23.359L24.2857 27.2445H31.6334L19.9524 16.0044L8.36561 27.2445H16.2314Z" fill="currentColor"/>
<path d="M27.0178 9.20485L21.4599 14.7555L25.1337 18.4559L27.0178 16.6057L37.3328 26.6894C34.9778 32.8414 28.9489 37.2357 21.8367 37.2357C12.6991 37.2357 5.30428 29.9736 5.30428 21C5.35138 12.0264 12.7462 4.76432 21.8838 4.76432C29.9851 4.76432 36.7676 10.5463 38.1336 18.0859L43.1262 23.2665C43.2204 22.5264 43.2675 21.7401 43.2675 21C43.2675 15.4031 41.0538 10.13 37.0031 6.15198C32.9525 2.17401 27.583 0 21.8838 0C16.1375 0 10.8151 2.17401 6.76441 6.15198C2.71374 10.13 0.5 15.3568 0.5 21C0.5 26.6432 2.71374 31.87 6.76441 35.848C10.8151 39.826 16.1846 42 21.8838 42C27.583 42 32.9525 39.826 37.0031 35.848C39.4995 33.3965 41.2893 30.4824 42.2784 27.2907C42.4668 26.7357 42.6081 26.1344 42.7494 25.5793L38.4162 21.0925L27.0178 9.20485Z" fill="currentColor"/>
<path d="M60.9115 13.4945H64.0561L62.3408 21.9634H67.6453L67.1371 24.4121H58.6881L60.9115 13.4945Z" fill="currentColor"/>
<path d="M70.6049 13.4945H73.7495L71.526 24.4121H68.3815L70.6049 13.4945Z" fill="currentColor"/>
<path d="M78.6389 15.8808L78.1466 18.2826H83.054L82.5617 20.6689H77.6701L76.9078 24.4121H73.7632L75.9867 13.4945H84.6898L84.1975 15.8808H78.6389Z" fill="currentColor"/>
<path d="M88.7809 15.8808L88.4157 17.7212H93.3549L92.8943 20.0295H87.9392L87.5422 22.0258H93.3707L92.8625 24.4121H83.9529L86.1764 13.4945H94.8795L94.3872 15.8808H88.7809Z" fill="currentColor"/>
<path d="M98.705 15.9431H95.2904L95.7987 13.4945H105.756L105.248 15.9431H101.85L100.118 24.4121H96.9739L98.705 15.9431Z" fill="currentColor"/>
<path d="M110.553 24.6305C109.43 24.6305 108.451 24.4277 107.615 24.0222C106.789 23.6167 106.148 23.05 105.693 22.3222C105.248 21.5943 105.026 20.7625 105.026 19.8267C105.026 18.579 105.317 17.456 105.899 16.4578C106.492 15.4596 107.313 14.6798 108.361 14.1183C109.42 13.5569 110.622 13.2761 111.966 13.2761C113.088 13.2761 114.063 13.4789 114.888 13.8844C115.725 14.2899 116.365 14.8566 116.81 15.5844C117.265 16.3123 117.493 17.1441 117.493 18.0799C117.493 19.3276 117.197 20.4506 116.604 21.4488C116.021 22.4469 115.201 23.2268 114.142 23.7882C113.094 24.3497 111.897 24.6305 110.553 24.6305ZM110.823 22.0726C111.521 22.0726 112.136 21.9011 112.665 21.5579C113.194 21.2148 113.602 20.7573 113.888 20.1854C114.174 19.6032 114.317 18.9637 114.317 18.267C114.317 17.5288 114.084 16.9413 113.618 16.5046C113.163 16.0575 112.522 15.834 111.696 15.834C110.997 15.834 110.383 16.0055 109.854 16.3487C109.325 16.6918 108.917 17.1545 108.631 17.7368C108.345 18.3086 108.202 18.9429 108.202 19.6395C108.202 20.3778 108.43 20.9705 108.885 21.4176C109.351 21.8543 109.997 22.0726 110.823 22.0726Z" fill="currentColor"/>
<path d="M123.396 24.6305C122.433 24.6305 121.602 24.4745 120.903 24.1626C120.204 23.8402 119.669 23.3827 119.299 22.7901C118.928 22.1974 118.743 21.5007 118.743 20.7001C118.743 20.3674 118.785 19.9827 118.87 19.546L120.109 13.4945H123.253L122.03 19.4992C121.967 19.8111 121.935 20.097 121.935 20.357C121.935 21.5007 122.549 22.0726 123.777 22.0726C124.444 22.0726 124.969 21.8751 125.35 21.4799C125.741 21.0744 126.033 20.4142 126.223 19.4992L127.446 13.4945H130.543L129.288 19.6863C128.611 22.9824 126.647 24.6305 123.396 24.6305Z" fill="currentColor"/>
<path d="M141.916 16.9725C141.916 17.9707 141.646 18.8337 141.106 19.5616C140.566 20.279 139.809 20.8041 138.835 21.1368L140.725 24.4121H137.438L135.786 21.5111H134.198L133.61 24.4121H130.466L132.689 13.4945H137.438C138.857 13.4945 139.958 13.8012 140.741 14.4147C141.525 15.0281 141.916 15.8808 141.916 16.9725ZM138.74 17.2689C138.74 16.8218 138.587 16.489 138.279 16.2707C137.972 16.0419 137.544 15.9275 136.993 15.9275H135.341L134.674 19.1249H136.548C137.247 19.1249 137.787 18.9637 138.168 18.6414C138.549 18.319 138.74 17.8615 138.74 17.2689Z" fill="currentColor"/>
<path d="M60.7817 34.7063C60.3987 34.7063 60.0507 34.6231 59.7376 34.4567C59.4283 34.2867 59.1852 34.0553 59.0085 33.7623C58.8354 33.4694 58.7488 33.1403 58.7488 32.775C58.7488 32.4097 58.8354 32.0806 59.0085 31.7877C59.1852 31.4947 59.4283 31.2651 59.7376 31.0987C60.0507 30.9287 60.3987 30.8437 60.7817 30.8437C61.1647 30.8437 61.509 30.9269 61.8147 31.0933C62.124 31.2596 62.3671 31.4911 62.5439 31.7877C62.7206 32.0806 62.809 32.4097 62.809 32.775C62.809 33.1403 62.7206 33.4712 62.5439 33.7678C62.3671 34.0607 62.124 34.2904 61.8147 34.4567C61.509 34.6231 61.1647 34.7063 60.7817 34.7063ZM60.7817 34.3482C61.0873 34.3482 61.3635 34.2813 61.6103 34.1475C61.857 34.0101 62.0504 33.822 62.1903 33.5833C62.3303 33.341 62.4002 33.0716 62.4002 32.775C62.4002 32.4784 62.3303 32.2108 62.1903 31.9721C62.0504 31.7298 61.857 31.5417 61.6103 31.4079C61.3635 31.2705 61.0873 31.2018 60.7817 31.2018C60.476 31.2018 60.198 31.2705 59.9475 31.4079C59.7008 31.5417 59.5056 31.7298 59.362 31.9721C59.2221 32.2108 59.1521 32.4784 59.1521 32.775C59.1521 33.0716 59.2221 33.341 59.362 33.5833C59.5056 33.822 59.7008 34.0101 59.9475 34.1475C60.198 34.2813 60.476 34.3482 60.7817 34.3482Z" fill="currentColor"/>
<path d="M65.1876 31.7985C65.4601 31.7985 65.7068 31.86 65.9278 31.983C66.1488 32.1023 66.3219 32.2723 66.4471 32.4929C66.5723 32.7135 66.6349 32.9649 66.6349 33.247C66.6349 33.5327 66.5723 33.7858 66.4471 34.0065C66.3219 34.2271 66.1488 34.3989 65.9278 34.5218C65.7105 34.6412 65.4638 34.7008 65.1876 34.7008C64.9519 34.7008 64.7383 34.6538 64.5468 34.5598C64.359 34.4622 64.2043 34.3211 64.0828 34.1367V35.7262H63.6906V31.8202H64.0662V32.3844C64.184 32.1963 64.3387 32.0517 64.5302 31.9504C64.7254 31.8492 64.9445 31.7985 65.1876 31.7985ZM65.16 34.3591C65.3625 34.3591 65.5466 34.3139 65.7124 34.2235C65.8781 34.1294 66.007 33.9974 66.0991 33.8274C66.1948 33.6575 66.2427 33.464 66.2427 33.247C66.2427 33.03 66.1948 32.8383 66.0991 32.6719C66.007 32.5019 65.8781 32.3699 65.7124 32.2759C65.5466 32.1819 65.3625 32.1349 65.16 32.1349C64.9537 32.1349 64.7678 32.1819 64.602 32.2759C64.44 32.3699 64.3111 32.5019 64.2154 32.6719C64.1233 32.8383 64.0772 33.03 64.0772 33.247C64.0772 33.464 64.1233 33.6575 64.2154 33.8274C64.3111 33.9974 64.44 34.1294 64.602 34.2235C64.7678 34.3139 64.9537 34.3591 65.16 34.3591Z" fill="currentColor"/>
<path d="M69.5325 32.162H67.8698V34.6737H67.4776V31.8202H69.5325V32.162Z" fill="currentColor"/>
<path d="M71.0992 31.7985C71.4785 31.7985 71.7694 31.8925 71.972 32.0806C72.1745 32.2651 72.2758 32.5399 72.2758 32.9052V34.6737H71.9002V34.2289C71.8118 34.3772 71.6811 34.4929 71.508 34.5761C71.3386 34.6593 71.136 34.7008 70.9003 34.7008C70.5762 34.7008 70.3185 34.6249 70.127 34.473C69.9355 34.3211 69.8397 34.1204 69.8397 33.8708C69.8397 33.6285 69.9281 33.4332 70.1049 33.2849C70.2853 33.1367 70.5707 33.0625 70.9611 33.0625H71.8836V32.8889C71.8836 32.643 71.8136 32.4567 71.6737 32.3302C71.5337 32.2 71.3294 32.1349 71.0605 32.1349C70.8764 32.1349 70.6996 32.1656 70.5302 32.2271C70.3608 32.285 70.2153 32.3663 70.0938 32.4712L69.917 32.1837C70.0643 32.0607 70.2411 31.9667 70.4473 31.9016C70.6536 31.8329 70.8709 31.7985 71.0992 31.7985ZM70.9611 34.3971C71.182 34.3971 71.3717 34.3482 71.5301 34.2506C71.6884 34.1493 71.8063 34.0047 71.8836 33.8166V33.35H70.9721C70.475 33.35 70.2264 33.52 70.2264 33.86C70.2264 34.0263 70.2908 34.1584 70.4197 34.256C70.5486 34.35 70.7291 34.3971 70.9611 34.3971Z" fill="currentColor"/>
<path d="M73.3199 31.8202H73.7121V33.0842H75.5406V31.8202H75.9328V34.6737H75.5406V33.4151H73.7121V34.6737H73.3199V31.8202Z" fill="currentColor"/>
<path d="M77.0476 31.8202H77.4398V34.0878L79.3787 31.8202H79.7267V34.6737H79.3345V32.4061L77.4011 34.6737H77.0476V31.8202Z" fill="currentColor"/>
<path d="M82.2056 33.1873C82.4118 33.2343 82.5701 33.3157 82.6806 33.4314C82.7948 33.5471 82.8519 33.6882 82.8519 33.8546C82.8519 34.0209 82.793 34.1692 82.6751 34.2994C82.5609 34.4296 82.4044 34.5309 82.2056 34.6032C82.0067 34.6719 81.7876 34.7063 81.5482 34.7063C81.3383 34.7063 81.132 34.6773 80.9295 34.6195C80.727 34.558 80.5502 34.4694 80.3992 34.3537L80.5318 34.0661C80.6643 34.1638 80.819 34.2397 80.9958 34.294C81.1726 34.3482 81.3512 34.3754 81.5316 34.3754C81.8005 34.3754 82.0196 34.3265 82.189 34.2289C82.3621 34.1276 82.4486 33.992 82.4486 33.822C82.4486 33.6701 82.3786 33.5526 82.2387 33.4694C82.0988 33.3826 81.9073 33.3392 81.6642 33.3392H81.167V33.0571H81.6421C81.8594 33.0571 82.0343 33.0173 82.1669 32.9377C82.2995 32.8546 82.3658 32.7443 82.3658 32.6068C82.3658 32.4549 82.2903 32.3356 82.1393 32.2488C81.992 32.162 81.7986 32.1186 81.5592 32.1186C81.2462 32.1186 80.9369 32.1963 80.6312 32.3519L80.5207 32.0535C80.8669 31.8763 81.226 31.7877 81.5979 31.7877C81.8189 31.7877 82.0177 31.8202 82.1945 31.8853C82.375 31.9468 82.5149 32.0354 82.6143 32.1511C82.7175 32.2669 82.769 32.4007 82.769 32.5526C82.769 32.6972 82.7175 32.8256 82.6143 32.9377C82.5149 33.0499 82.3786 33.133 82.2056 33.1873Z" fill="currentColor"/>
<path d="M84.7421 31.7985C85.1214 31.7985 85.4123 31.8925 85.6149 32.0806C85.8174 32.2651 85.9187 32.5399 85.9187 32.9052V34.6737H85.5431V34.2289C85.4547 34.3772 85.324 34.4929 85.1509 34.5761C84.9815 34.6593 84.7789 34.7008 84.5432 34.7008C84.2191 34.7008 83.9614 34.6249 83.7699 34.473C83.5784 34.3211 83.4826 34.1204 83.4826 33.8708C83.4826 33.6285 83.571 33.4332 83.7478 33.2849C83.9282 33.1367 84.2136 33.0625 84.604 33.0625H85.5265V32.8889C85.5265 32.643 85.4565 32.4567 85.3166 32.3302C85.1766 32.2 84.9723 32.1349 84.7034 32.1349C84.5193 32.1349 84.3425 32.1656 84.1731 32.2271C84.0037 32.285 83.8582 32.3663 83.7367 32.4712L83.5599 32.1837C83.7073 32.0607 83.884 31.9667 84.0902 31.9016C84.2965 31.8329 84.5138 31.7985 84.7421 31.7985ZM84.604 34.3971C84.825 34.3971 85.0146 34.3482 85.173 34.2506C85.3313 34.1493 85.4492 34.0047 85.5265 33.8166V33.35H84.615C84.1179 33.35 83.8693 33.52 83.8693 33.86C83.8693 34.0263 83.9337 34.1584 84.0626 34.256C84.1915 34.35 84.372 34.3971 84.604 34.3971Z" fill="currentColor"/>
<path d="M89.99 34.3374V35.3898H89.6199V34.6737H86.9628V31.8202H87.355V34.3374H89.1282V31.8202H89.5204V34.3374H89.99Z" fill="currentColor"/>
<path d="M90.739 31.8202H91.1312V34.0878L93.0702 31.8202H93.4182V34.6737H93.026V32.4061L91.0926 34.6737H90.739V31.8202Z" fill="currentColor"/>
<path d="M96.7739 31.8202V34.6737H96.4148V33.7298H95.3929L94.719 34.6737H94.2936L95.0173 33.6755C94.7926 33.6141 94.6195 33.5092 94.498 33.3609C94.3765 33.2126 94.3157 33.0245 94.3157 32.7967C94.3157 32.4784 94.4262 32.2361 94.6472 32.0698C94.8681 31.9034 95.1701 31.8202 95.5531 31.8202H96.7739ZM94.7134 32.8076C94.7134 33.2307 94.9878 33.4423 95.5365 33.4423H96.4148V32.162H95.5641C94.997 32.162 94.7134 32.3772 94.7134 32.8076Z" fill="currentColor"/>
<path d="M101.945 31.8202V34.6737H101.553V32.162H99.7302V34.6737H99.338V31.8202H101.945Z" fill="currentColor"/>
<path d="M104.259 34.7008C103.979 34.7008 103.727 34.6394 103.502 34.5164C103.278 34.3898 103.101 34.2162 102.972 33.9956C102.843 33.775 102.779 33.5254 102.779 33.247C102.779 32.9685 102.843 32.7189 102.972 32.4983C103.101 32.2777 103.278 32.1059 103.502 31.983C103.727 31.86 103.979 31.7985 104.259 31.7985C104.539 31.7985 104.791 31.86 105.016 31.983C105.24 32.1059 105.415 32.2777 105.541 32.4983C105.669 32.7189 105.734 32.9685 105.734 33.247C105.734 33.5254 105.669 33.775 105.541 33.9956C105.415 34.2162 105.24 34.3898 105.016 34.5164C104.791 34.6394 104.539 34.7008 104.259 34.7008ZM104.259 34.3591C104.465 34.3591 104.649 34.3139 104.811 34.2235C104.977 34.1294 105.106 33.9974 105.198 33.8274C105.29 33.6575 105.336 33.464 105.336 33.247C105.336 33.03 105.29 32.8365 105.198 32.6665C105.106 32.4965 104.977 32.3663 104.811 32.2759C104.649 32.1819 104.465 32.1349 104.259 32.1349C104.053 32.1349 103.867 32.1819 103.701 32.2759C103.539 32.3663 103.41 32.4965 103.314 32.6665C103.222 32.8365 103.176 33.03 103.176 33.247C103.176 33.464 103.222 33.6575 103.314 33.8274C103.41 33.9974 103.539 34.1294 103.701 34.2235C103.867 34.3139 104.053 34.3591 104.259 34.3591Z" fill="currentColor"/>
<path d="M108.287 34.6737L107.365 33.4802L106.436 34.6737H105.995L107.144 33.209L106.05 31.8202H106.492L107.365 32.9377L108.237 31.8202H108.668L107.574 33.209L108.734 34.6737H108.287Z" fill="currentColor"/>
<path d="M110.474 34.7008C110.194 34.7008 109.941 34.6394 109.717 34.5164C109.492 34.3898 109.315 34.2162 109.186 33.9956C109.058 33.775 108.993 33.5254 108.993 33.247C108.993 32.9685 109.058 32.7189 109.186 32.4983C109.315 32.2777 109.492 32.1059 109.717 31.983C109.941 31.86 110.194 31.7985 110.474 31.7985C110.753 31.7985 111.006 31.86 111.23 31.983C111.455 32.1059 111.63 32.2777 111.755 32.4983C111.884 32.7189 111.948 32.9685 111.948 33.247C111.948 33.5254 111.884 33.775 111.755 33.9956C111.63 34.2162 111.455 34.3898 111.23 34.5164C111.006 34.6394 110.753 34.7008 110.474 34.7008ZM110.474 34.3591C110.68 34.3591 110.864 34.3139 111.026 34.2235C111.192 34.1294 111.321 33.9974 111.413 33.8274C111.505 33.6575 111.551 33.464 111.551 33.247C111.551 33.03 111.505 32.8365 111.413 32.6665C111.321 32.4965 111.192 32.3663 111.026 32.2759C110.864 32.1819 110.68 32.1349 110.474 32.1349C110.267 32.1349 110.081 32.1819 109.916 32.2759C109.754 32.3663 109.625 32.4965 109.529 32.6665C109.437 32.8365 109.391 33.03 109.391 33.247C109.391 33.464 109.437 33.6575 109.529 33.8274C109.625 33.9974 109.754 34.1294 109.916 34.2235C110.081 34.3139 110.267 34.3591 110.474 34.3591Z" fill="currentColor"/>
<path d="M115.604 34.3374V35.3627H115.234V34.6737H112.632V35.3627H112.262V34.3374H112.428C112.623 34.3265 112.756 34.1855 112.826 33.9142C112.896 33.643 112.944 33.2632 112.969 32.775L113.008 31.8202H115.151V34.3374H115.604ZM113.328 32.7967C113.31 33.2018 113.275 33.5363 113.223 33.8003C113.172 34.0607 113.08 34.2397 112.947 34.3374H114.759V32.162H113.362L113.328 32.7967Z" fill="currentColor"/>
<path d="M117.567 34.7008C117.288 34.7008 117.035 34.6394 116.811 34.5164C116.586 34.3898 116.409 34.2162 116.28 33.9956C116.151 33.775 116.087 33.5254 116.087 33.247C116.087 32.9685 116.151 32.7189 116.28 32.4983C116.409 32.2777 116.586 32.1059 116.811 31.983C117.035 31.86 117.288 31.7985 117.567 31.7985C117.847 31.7985 118.1 31.86 118.324 31.983C118.549 32.1059 118.724 32.2777 118.849 32.4983C118.978 32.7189 119.042 32.9685 119.042 33.247C119.042 33.5254 118.978 33.775 118.849 33.9956C118.724 34.2162 118.549 34.3898 118.324 34.5164C118.1 34.6394 117.847 34.7008 117.567 34.7008ZM117.567 34.3591C117.774 34.3591 117.958 34.3139 118.12 34.2235C118.286 34.1294 118.414 33.9974 118.506 33.8274C118.599 33.6575 118.645 33.464 118.645 33.247C118.645 33.03 118.599 32.8365 118.506 32.6665C118.414 32.4965 118.286 32.3663 118.12 32.2759C117.958 32.1819 117.774 32.1349 117.567 32.1349C117.361 32.1349 117.175 32.1819 117.009 32.2759C116.847 32.3663 116.719 32.4965 116.623 32.6665C116.531 32.8365 116.485 33.03 116.485 33.247C116.485 33.464 116.531 33.6575 116.623 33.8274C116.719 33.9974 116.847 34.1294 117.009 34.2235C117.175 34.3139 117.361 34.3591 117.567 34.3591Z" fill="currentColor"/>
<path d="M121.731 33.1981C122.125 33.2886 122.322 33.5218 122.322 33.898C122.322 34.1475 122.228 34.3392 122.04 34.473C121.853 34.6068 121.573 34.6737 121.201 34.6737H119.881V31.8202H121.162C121.494 31.8202 121.753 31.8835 121.941 32.0101C122.129 32.1367 122.223 32.3175 122.223 32.5526C122.223 32.7081 122.179 32.8419 122.09 32.954C122.005 33.0625 121.886 33.1439 121.731 33.1981ZM120.262 33.0896H121.135C121.359 33.0896 121.53 33.0481 121.648 32.9649C121.77 32.8817 121.831 32.7605 121.831 32.6014C121.831 32.4423 121.77 32.3229 121.648 32.2434C121.53 32.1638 121.359 32.124 121.135 32.124H120.262V33.0896ZM121.184 34.3699C121.435 34.3699 121.622 34.3301 121.748 34.2506C121.873 34.171 121.936 34.0462 121.936 33.8763C121.936 33.7063 121.878 33.5815 121.764 33.5019C121.65 33.4188 121.47 33.3772 121.223 33.3772H120.262V34.3699H121.184Z" fill="currentColor"/>
<path d="M126.538 33.1981C126.932 33.2886 127.129 33.5218 127.129 33.898C127.129 34.1475 127.035 34.3392 126.847 34.473C126.659 34.6068 126.379 34.6737 126.007 34.6737H124.687V31.8202H125.969C126.3 31.8202 126.56 31.8835 126.748 32.0101C126.935 32.1367 127.029 32.3175 127.029 32.5526C127.029 32.7081 126.985 32.8419 126.897 32.954C126.812 33.0625 126.692 33.1439 126.538 33.1981ZM125.068 33.0896H125.941C126.166 33.0896 126.337 33.0481 126.455 32.9649C126.576 32.8817 126.637 32.7605 126.637 32.6014C126.637 32.4423 126.576 32.3229 126.455 32.2434C126.337 32.1638 126.166 32.124 125.941 32.124H125.068V33.0896ZM125.991 34.3699C126.241 34.3699 126.429 34.3301 126.554 34.2506C126.679 34.171 126.742 34.0462 126.742 33.8763C126.742 33.7063 126.685 33.5815 126.571 33.5019C126.457 33.4188 126.276 33.3772 126.029 33.3772H125.068V34.3699H125.991Z" fill="currentColor"/>
<path d="M131.549 32.162H129.886V34.6737H129.494V31.8202H131.549V32.162Z" fill="currentColor"/>
<path d="M133.179 34.7008C132.899 34.7008 132.647 34.6394 132.423 34.5164C132.198 34.3898 132.021 34.2162 131.892 33.9956C131.763 33.775 131.699 33.5254 131.699 33.247C131.699 32.9685 131.763 32.7189 131.892 32.4983C132.021 32.2777 132.198 32.1059 132.423 31.983C132.647 31.86 132.899 31.7985 133.179 31.7985C133.459 31.7985 133.711 31.86 133.936 31.983C134.161 32.1059 134.336 32.2777 134.461 32.4983C134.59 32.7189 134.654 32.9685 134.654 33.247C134.654 33.5254 134.59 33.775 134.461 33.9956C134.336 34.2162 134.161 34.3898 133.936 34.5164C133.711 34.6394 133.459 34.7008 133.179 34.7008ZM133.179 34.3591C133.386 34.3591 133.57 34.3139 133.732 34.2235C133.897 34.1294 134.026 33.9974 134.118 33.8274C134.21 33.6575 134.257 33.464 134.257 33.247C134.257 33.03 134.21 32.8365 134.118 32.6665C134.026 32.4965 133.897 32.3663 133.732 32.2759C133.57 32.1819 133.386 32.1349 133.179 32.1349C132.973 32.1349 132.787 32.1819 132.621 32.2759C132.459 32.3663 132.33 32.4965 132.235 32.6665C132.143 32.8365 132.097 33.03 132.097 33.247C132.097 33.464 132.143 33.6575 132.235 33.8274C132.33 33.9974 132.459 34.1294 132.621 34.2235C132.787 34.3139 132.973 34.3591 133.179 34.3591Z" fill="currentColor"/>
<path d="M136.99 31.7985C137.262 31.7985 137.509 31.86 137.73 31.983C137.951 32.1023 138.124 32.2723 138.249 32.4929C138.374 32.7135 138.437 32.9649 138.437 33.247C138.437 33.5327 138.374 33.7858 138.249 34.0065C138.124 34.2271 137.951 34.3989 137.73 34.5218C137.512 34.6412 137.266 34.7008 136.99 34.7008C136.754 34.7008 136.54 34.6538 136.349 34.5598C136.161 34.4622 136.006 34.3211 135.885 34.1367V35.7262H135.492V31.8202H135.868V32.3844C135.986 32.1963 136.141 32.0517 136.332 31.9504C136.527 31.8492 136.746 31.7985 136.99 31.7985ZM136.962 34.3591C137.164 34.3591 137.349 34.3139 137.514 34.2235C137.68 34.1294 137.809 33.9974 137.901 33.8274C137.997 33.6575 138.045 33.464 138.045 33.247C138.045 33.03 137.997 32.8383 137.901 32.6719C137.809 32.5019 137.68 32.3699 137.514 32.2759C137.349 32.1819 137.164 32.1349 136.962 32.1349C136.756 32.1349 136.57 32.1819 136.404 32.2759C136.242 32.3699 136.113 32.5019 136.017 32.6719C135.925 32.8383 135.879 33.03 135.879 33.247C135.879 33.464 135.925 33.6575 136.017 33.8274C136.113 33.9974 136.242 34.1294 136.404 34.2235C136.57 34.3139 136.756 34.3591 136.962 34.3591Z" fill="currentColor"/>
<path d="M140.5 32.8293C140.865 32.8329 141.143 32.9124 141.334 33.0679C141.526 33.2235 141.622 33.4477 141.622 33.7406C141.622 34.0444 141.519 34.2777 141.312 34.4404C141.106 34.6032 140.811 34.6828 140.428 34.6791L139.279 34.6737V31.8202H139.672V32.8184L140.5 32.8293ZM142.108 31.8202H142.5V34.6737H142.108V31.8202ZM140.406 34.3862C140.675 34.3898 140.878 34.3374 141.014 34.2289C141.154 34.1168 141.224 33.954 141.224 33.7406C141.224 33.5309 141.156 33.3754 141.02 33.2741C140.883 33.1728 140.679 33.1204 140.406 33.1168L139.672 33.1059V34.3754L140.406 34.3862Z" fill="currentColor"/>
</g>
<defs>
<clipPath id="clip0_1757_2422">
<rect width="142" height="42" fill="currentColor" transform="translate(0.5)"/>
</clipPath>
</defs>
</svg>
